<svg width="24" height="24" viewBox="0 0 24 24" fill="none" xmlns="http://www.w3.org/2000/svg">
<path d="M15 22.065V17.065C15 16.2694 14.6839 15.5063 14.1213 14.9437C13.5587 14.3811 12.7956 14.065 12 14.065C11.2044 14.065 10.4413 14.3811 9.87868 14.9437C9.31607 15.5063 9 16.2694 9 17.065V22.065H4C3.46957 22.065 2.96086 21.8543 2.58579 21.4792C2.21071 21.1041 2 20.5954 2 20.065V9.19701C2 8.85163 2.08943 8.51215 2.25959 8.2116C2.42976 7.91106 2.67485 7.6597 2.971 7.48201L10.971 2.68201C11.2818 2.49551 11.6375 2.39699 12 2.39699C12.3625 2.39699 12.7182 2.49551 13.029 2.68201L21.029 7.48201C21.3252 7.6597 21.5702 7.91106 21.7404 8.2116C21.9106 8.51215 22 8.85163 22 9.19701V20.065C22 20.5954 21.7893 21.1041 21.4142 21.4792C21.0391 21.8543 20.5304 22.065 20 22.065H15Z" fill="black"/>
</svg>
