<svg width="20" height="20" viewBox="0 0 20 20" fill="none" xmlns="http://www.w3.org/2000/svg">
<path d="M13.8987 13.8987C14.6139 13.1835 15.1813 12.3344 15.5684 11.3999C15.9555 10.4654 16.1547 9.46383 16.1547 8.45234C16.1547 7.44085 15.9555 6.43927 15.5684 5.50478C15.1813 4.57029 14.6139 3.72119 13.8987 3.00596C13.1835 2.29073 12.3344 1.72338 11.3999 1.33631C10.4654 0.949227 9.46382 0.75 8.45234 0.75C7.44085 0.75 6.43927 0.949227 5.50478 1.33631C4.57029 1.72338 3.72119 2.29073 3.00596 3.00596C1.56149 4.45043 0.75 6.40955 0.75 8.45234C0.75 10.4951 1.56149 12.4542 3.00596 13.8987C4.45043 15.3432 6.40955 16.1547 8.45234 16.1547C10.4951 16.1547 12.4542 15.3432 13.8987 13.8987ZM13.8987 13.8987L18.75 18.75" stroke="black" stroke-width="1.5" stroke-linecap="round" stroke-linejoin="round"/>
</svg>
