<svg width="24" height="24" viewBox="0 0 24 24" fill="none" xmlns="http://www.w3.org/2000/svg">
<path d="M12 0.75C18.2133 0.75 23.25 5.78671 23.25 12C23.25 18.2133 18.2133 23.25 12 23.25C5.78671 23.25 0.75 18.2133 0.75 12C0.75 5.78671 5.78671 0.75 12 0.75ZM12 1.25C6.06279 1.25 1.25 6.06279 1.25 12C1.25 17.9372 6.06279 22.75 12 22.75C17.9372 22.75 22.75 17.9372 22.75 12C22.75 6.06279 17.9372 1.25 12 1.25ZM8.8291 15.2979L8.10547 15.6602L8.4668 14.9365L8.8291 15.2979ZM13.5195 12.3857L13.2129 12.0791L11.6875 10.5527L11.3799 10.2451L15.6602 8.10547L13.5195 12.3857Z" fill="black" stroke="black" stroke-width="1.5"/>
</svg>
