<svg width="20" height="20" viewBox="0 0 20 20" fill="none" xmlns="http://www.w3.org/2000/svg">
<path fill-rule="evenodd" clip-rule="evenodd" d="M4 0C2.04745 0 0 2.04745 0 4C0 10.0416 -2.93851e-05 9.95845 -2.93851e-05 16C-2.93851e-05 16.5861 1.12493 18.4574 1.5 18.8719C1.87507 19.2864 3.46957 19.8905 4 19.8905C10.2484 19.8905 9.75161 19.8905 16 19.8905C16.0388 19.8905 16.0901 19.887 16.1519 19.8806C18.3031 19.6577 20 18.1627 20 16C20 9.95845 20 10.0416 20 4C20 3.41386 19.0958 1.91446 18.6858 1.5C18.3107 1.08554 16.5304 0 16 0C9.75161 0 10.2484 0 4 0ZM6.625 6.22129C6.64738 6.01005 6.71376 5.80743 6.81939 5.62964C6.92502 5.45185 7.0668 5.30381 7.2334 5.19732C7.4 5.09083 7.58682 5.02885 7.77896 5.01631C7.97109 5.00377 8.16311 5.04124 8.34 5.12511C8.8439 5.36401 9.90643 5.9033 11.256 6.76055C12.2018 7.36131 13.1186 8.01734 13.996 8.73412C14.1507 8.86053 14.2757 9.02602 14.362 9.21596C14.4484 9.40591 14.4933 9.61553 14.4933 9.8281C14.4933 10.0407 14.4484 10.2503 14.362 10.4402C14.2757 10.6302 14.1508 10.7957 13.996 10.9221C13.1187 11.6382 12.2002 12.2909 11.256 12.8934C10.3106 13.4967 9.34038 14.0491 8.34 14.5311C8.16356 14.6161 7.97106 14.6529 7.77885 14.6404C7.58664 14.628 7.39973 14.566 7.23306 14.4595C7.0664 14.353 6.9246 14.2048 6.81902 14.0269C6.71344 13.849 6.6463 13.6463 6.625 13.4349C6.50433 12.2373 6.44787 11.0331 6.449 9.8281C6.45061 8.1142 6.56119 6.82355 6.625 6.22129Z" fill="black"/>
</svg>
