<svg width="20" height="20" viewBox="0 0 20 20" fill="none" xmlns="http://www.w3.org/2000/svg">
<path d="M15.75 0.75H4.25C2.317 0.75 0.75 2.62029 0.75 4.92742V15.0726C0.75 17.3797 2.317 19.25 4.25 19.25H15.75C17.683 19.25 19.25 17.3797 19.25 15.0726V4.92742C19.25 2.62029 17.683 0.75 15.75 0.75Z" stroke="black" stroke-width="1.5" stroke-linecap="round" stroke-linejoin="round"/>
<path d="M6.83002 11.5397C6.83002 12.8502 6.83002 13.5043 7.06002 13.8838C7.26102 14.2144 7.57002 14.4281 7.91002 14.471C8.30102 14.52 8.77702 14.1941 9.72802 13.5413L11.972 12.0016C12.928 11.3451 13.407 11.0169 13.567 10.5872C13.6366 10.4026 13.6725 10.2024 13.6725 9.99999C13.6725 9.79755 13.6366 9.59741 13.567 9.41277C13.407 8.98309 12.928 8.65486 11.972 7.99961L9.72802 6.45873C8.77702 5.80586 8.30102 5.48002 7.91102 5.52896C7.57102 5.57193 7.26102 5.78557 7.06102 6.11619C6.83002 6.49574 6.83002 7.1498 6.83002 8.45912V11.5397Z" stroke="black" stroke-width="1.5"/>
</svg>
