<svg width="26" height="26" viewBox="0 0 26 26" fill="none" xmlns="http://www.w3.org/2000/svg">
<path d="M13.8978 11.4102L8.29185 17.0162ZM8.29185 17.0162C8.09739 16.8217 7.86263 16.6676 7.6003 16.565L2.11668 14.443C0.36306 13.7642 0.430942 11.261 2.2178 10.6777L16.9079 5.87852C18.4636 5.36941 19.9386 6.84443 19.4295 8.40007L14.6311 23.0895C14.047 24.8771 11.5431 24.9442 10.865 23.1913L8.74157 17.7091C8.64093 17.4497 8.48728 17.2142 8.29043 17.0176" fill="black"/>
<path d="M13.8978 11.4102L8.29185 17.0162C8.09739 16.8217 7.86263 16.6676 7.6003 16.565L2.11668 14.443C0.36306 13.7642 0.430942 11.261 2.2178 10.6777L16.9079 5.87852C18.4636 5.36941 19.9386 6.84443 19.4295 8.40007L14.6311 23.0895C14.047 24.8771 11.5431 24.9442 10.865 23.1913L8.74157 17.7091C8.64093 17.4497 8.48728 17.2142 8.29043 17.0176" stroke="black" stroke-width="1.5" stroke-linecap="round" stroke-linejoin="round"/>
<path d="M15 11.3C15.2733 11.0266 15.2733 10.5834 15 10.3101C14.7266 10.0367 14.2834 10.0367 14.01 10.3101L14.505 10.805L15 11.3ZM7.505 17.805L7.99998 18.3L15 11.3L14.505 10.805L14.01 10.3101L7.01003 17.3101L7.505 17.805Z" fill="white"/>
</svg>
