<svg width="20" height="17" viewBox="0 0 20 17" fill="none" xmlns="http://www.w3.org/2000/svg">
<path d="M9.55487 16.8732C9.68485 16.9557 9.84021 17 9.99949 17C10.1588 17 10.3141 16.9557 10.4441 16.8732L10 16.3108L10.4451 16.8732L10.4533 16.8677L10.4749 16.8539L10.5569 16.8006C10.628 16.7547 10.7289 16.6876 10.8595 16.5994C12.3836 15.5687 13.8222 14.4404 15.1641 13.2233C16.3415 12.15 17.5385 10.8956 18.4451 9.56504C19.3477 8.2418 20 6.78623 20 5.32698C20 3.59482 19.4 2.24125 18.3385 1.32233C17.2821 0.40892 15.8564 0 14.359 0C12.5897 0 11.0277 0.765461 10 1.94535C8.97231 0.765461 7.40923 0 5.64103 0C2.48205 0 0 2.42503 0 5.32698C0 6.78623 0.653333 8.24088 1.55487 9.56504C2.46154 10.8956 3.65846 12.15 4.8359 13.2242C6.26647 14.5209 7.80678 15.7166 9.44308 16.8006L9.52513 16.8539L9.54667 16.8677L9.55487 16.8732Z" fill="black"/>
</svg>
