<svg width="22" height="21" viewBox="0 0 22 21" fill="none" xmlns="http://www.w3.org/2000/svg">
<path d="M20.2267 15.7383C19.4632 15.0075 17.6141 13.9411 16.717 13.5114C15.5487 12.9523 15.4525 12.9067 14.5343 13.5547C13.9217 13.9873 13.5145 14.3736 12.7977 14.2284C12.0808 14.0832 10.5231 13.2643 9.15912 11.9727C7.79515 10.6811 6.88311 9.15845 6.72974 8.47978C6.57637 7.8011 6.98984 7.41884 7.44081 6.83562C8.0764 6.01354 8.02832 5.87652 7.48504 4.76671C7.06147 3.90353 5.90616 2.16346 5.13402 1.44186C4.30804 0.666818 4.30804 0.803831 3.77582 1.01392C3.34251 1.18706 2.92682 1.39757 2.53396 1.64281C1.76471 2.12829 1.33778 2.53157 1.03921 3.13763C0.740648 3.74368 0.60651 5.16451 2.14837 7.82531C3.69024 10.4861 4.772 11.8467 7.01099 13.9676C9.24999 16.0886 10.9717 17.229 13.4886 18.5699C16.6021 20.2264 17.7964 19.9035 18.4363 19.6203C19.0762 19.3372 19.5026 18.9353 20.0147 18.2045C20.2735 17.832 20.4956 17.4375 20.6782 17.0262C20.8998 16.5225 21.044 16.5225 20.2267 15.7383Z" stroke="black" stroke-width="1.7" stroke-miterlimit="10"/>
</svg>
