<svg width="8" height="5" viewBox="0 0 8 5" fill="none" xmlns="http://www.w3.org/2000/svg">
<path d="M7.14036 0.146279L3.99436 3.29328L0.847356 0.14728C0.753055 0.0562008 0.626754 0.00580366 0.495656 0.00694287C0.364557 0.00808208 0.239151 0.060666 0.146447 0.15337C0.0537429 0.246074 0.00115811 0.37148 1.89013e-05 0.502579C-0.00112031 0.633677 0.0492769 0.759978 0.140356 0.854279L3.64036 4.35428C3.73412 4.44801 3.86127 4.50067 3.99386 4.50067C4.12644 4.50067 4.25359 4.44801 4.34736 4.35428L7.84736 0.854279C7.94124 0.760525 7.99404 0.633315 7.99413 0.500633C7.99423 0.367951 7.94161 0.240665 7.84786 0.146778C7.7541 0.0528916 7.62689 9.38933e-05 7.49421 1.2511e-07C7.36153 -9.36431e-05 7.23424 0.0525245 7.14036 0.146279Z" fill="black"/>
</svg>
