<svg width="21" height="21" viewBox="0 0 21 21" fill="none" xmlns="http://www.w3.org/2000/svg">
<path d="M1.45001 0.100403C0.692366 0.100403 0.100403 0.82854 0.100403 1.68146V18.7186C0.100403 19.5715 0.692366 20.2996 1.45001 20.2996H18.95C19.7077 20.2996 20.2996 19.5715 20.2996 18.7186V1.68146C20.2996 0.82854 19.7077 0.100403 18.95 0.100403H1.45001ZM18.8504 14.3924V18.619H1.54962V17.3904C1.55823 17.3822 1.56828 17.3742 1.57599 17.3651L1.57697 17.3641L5.62189 12.4442L7.82697 14.8094L7.83282 14.8162C7.9819 14.95 8.16738 15.0321 8.35138 15.034C8.53663 15.0358 8.71327 14.9552 8.83868 14.7791V14.7801L13.9354 8.74689L18.8504 14.3924ZM18.8504 12.0193L14.4578 6.9549L14.4568 6.95294C14.3105 6.79023 14.1116 6.71192 13.91 6.72052H13.9061C13.8045 6.72835 13.706 6.76134 13.617 6.81525C13.5307 6.86759 13.4553 6.93884 13.3943 7.02423L8.29181 13.0057L6.01349 10.6541L6.00861 10.6492L5.89435 10.5643C5.6566 10.4228 5.36939 10.4466 5.15021 10.6219L5.04669 10.7225L5.04572 10.7234L1.54962 14.9617V1.78107H18.8504V12.0193ZM5.82501 4.55646C5.06546 4.55646 4.47833 5.27996 4.47833 6.13361C4.47835 6.5633 4.6252 6.9722 4.86505 7.27521C5.10488 7.5781 5.44314 7.78107 5.82501 7.78107C6.20688 7.78105 6.54515 7.57812 6.78497 7.27521C7.02482 6.9722 7.17166 6.5633 7.17169 6.13361C7.17169 5.28 6.58454 4.55648 5.82501 4.55646Z" fill="black" stroke="black" stroke-width="0.2"/>
</svg>
