<svg width="24" height="24" viewBox="0 0 24 24" fill="none" xmlns="http://www.w3.org/2000/svg">
<path d="M11.625 3C6.86203 3 3 6.86203 3 11.625C3 16.388 6.86203 20.25 11.625 20.25C16.388 20.25 20.25 16.388 20.25 11.625C20.25 6.86203 16.388 3 11.625 3Z" stroke="black" stroke-width="1.7" stroke-miterlimit="10"/>
<path d="M10.3125 10.3125H11.8125V15.75" stroke="black" stroke-width="1.5" stroke-linecap="round" stroke-linejoin="round"/>
<path d="M9.75 15.9375H13.875" stroke="black" stroke-width="1.5" stroke-miterlimit="10" stroke-linecap="round"/>
<path d="M11.4063 6.09375C11.2085 6.09375 11.0151 6.1524 10.8507 6.26228C10.6862 6.37216 10.5581 6.52834 10.4824 6.71107C10.4067 6.89379 10.3869 7.09486 10.4255 7.28884C10.4641 7.48282 10.5593 7.661 10.6991 7.80086C10.839 7.94071 11.0172 8.03595 11.2112 8.07453C11.4051 8.11312 11.6062 8.09332 11.7889 8.01763C11.9717 7.94194 12.1278 7.81377 12.2377 7.64932C12.3476 7.48487 12.4062 7.29153 12.4062 7.09375C12.4062 6.82853 12.3009 6.57418 12.1134 6.38664C11.9258 6.19911 11.6715 6.09375 11.4063 6.09375Z" fill="black"/>
</svg>
