<svg width="256" height="73" viewBox="0 0 256 73" fill="none" xmlns="http://www.w3.org/2000/svg">
<path d="M13.134 0.251899C7.91046 2.4399 2.16896 8.6134 0.355457 16.3684C-1.94154 26.1909 7.61546 30.3459 8.39996 28.9854C9.32246 27.3849 6.68746 26.8439 6.14496 21.7469C5.44396 15.1639 8.50446 7.8084 12.3565 4.5809C13.0715 3.9809 13.038 4.8159 13.038 6.3594C13.038 9.1199 12.8855 33.9019 12.8855 39.0739C12.8855 46.0719 12.5965 48.2819 12.077 50.4659C11.5515 52.6784 10.7055 54.1739 11.346 54.7499C12.062 55.3939 15.119 53.8614 16.8885 51.3919C19.0105 48.4299 19.7535 44.8719 19.887 41.0094C20.048 36.3524 20.041 28.9624 20.048 24.7474C20.054 20.8819 20.113 9.5624 19.98 2.7574C19.9475 1.0874 15.3185 -0.663601 13.134 0.251899ZM198.605 33.0034C198.437 36.6419 197.631 39.4854 196.632 41.4914C194.697 45.3749 190.682 46.5804 188.977 40.9984C188.048 37.9554 188.004 32.8734 188.672 28.6269C189.352 24.3014 191.251 21.0344 194.394 21.3289C197.495 21.6204 198.947 25.6154 198.605 33.0034ZM146.33 55.5769C146.288 61.6219 145.337 66.9219 143.297 68.4619C140.403 70.6449 136.513 69.0069 137.319 64.5959C138.031 60.6924 141.402 56.7059 146.339 51.8349C146.339 51.8349 146.349 52.9459 146.33 55.5769ZM145.54 32.9684C145.363 36.2824 144.504 39.6109 143.567 41.4919C141.632 45.3754 137.588 46.5894 135.912 40.9989C134.766 37.1789 135.04 32.2359 135.607 29.1209C136.343 25.0794 138.127 21.3299 141.329 21.3299C144.443 21.3299 145.979 24.7464 145.54 32.9684ZM115.258 32.9184C115.068 36.4274 114.383 39.3609 113.285 41.4919C111.297 45.3489 107.364 46.5719 105.63 40.9989C104.379 36.9804 104.805 31.5014 105.325 28.5414C106.097 24.1489 108.03 21.0349 111.047 21.3299C114.147 21.6329 115.653 25.6164 115.258 32.9184ZM254.034 37.0174C253.277 37.0174 252.931 37.7984 252.644 39.1124C251.653 43.6844 250.609 44.7159 249.265 44.7159C247.762 44.7159 246.412 42.4529 246.065 37.9219C245.792 34.3589 245.836 27.7999 246.185 21.2754C246.256 19.9349 245.886 18.6084 242.291 17.3024C240.744 16.7404 238.495 15.9129 237.375 18.6159C234.211 26.2529 232.973 32.3159 232.682 34.7779C232.667 34.9054 232.51 34.9319 232.483 34.6339C232.297 32.6614 231.883 29.0764 231.831 21.5454C231.821 20.0759 231.51 18.8254 229.888 17.8014C228.835 17.1364 225.64 15.9614 224.489 17.3599C223.492 18.5029 222.337 21.5799 221.138 25.2279C220.163 28.1929 219.484 30.1979 219.484 30.1979C219.484 30.1979 219.497 22.1989 219.508 19.1644C219.513 18.0199 218.728 17.6384 218.491 17.5694C217.426 17.2604 215.326 16.7439 214.435 16.7439C213.335 16.7439 213.066 17.3579 213.066 18.2539C213.066 18.3714 212.893 28.7854 212.893 36.0674C212.893 36.3839 212.893 36.7289 212.894 37.0959C212.286 40.4429 210.314 44.9859 208.169 44.9859C206.021 44.9859 205.008 43.0869 205.008 34.4054C205.008 29.3409 205.16 27.1384 205.234 23.4754C205.278 21.3654 205.362 19.7454 205.357 19.3779C205.341 18.2504 203.392 17.6819 202.484 17.4719C201.573 17.2604 200.781 17.1779 200.162 17.2134C199.287 17.2634 198.667 17.8369 198.667 18.6269C198.667 19.0509 198.672 19.8559 198.672 19.8559C197.545 18.0839 195.731 16.8509 194.525 16.4934C191.275 15.5284 187.884 16.3834 185.326 19.9629C183.293 22.8064 182.067 26.0279 181.585 30.6554C181.232 34.0389 181.347 37.4694 181.974 40.3709C181.217 43.6449 179.811 44.9859 178.272 44.9859C176.037 44.9859 174.417 41.3389 174.605 35.0299C174.729 30.8804 175.559 27.9684 176.467 23.7554C176.854 21.9594 176.539 21.0194 175.751 20.1184C175.027 19.2919 173.486 18.8694 171.271 19.3884C169.693 19.7589 167.436 20.1574 165.372 20.4634C165.372 20.4634 165.497 19.9659 165.599 19.0899C166.136 14.4949 161.142 14.8674 159.549 16.3349C158.598 17.2114 157.951 18.2449 157.705 20.1029C157.315 23.0519 159.72 24.4429 159.72 24.4429C158.932 28.0549 156.997 32.7729 155 36.1844C153.931 38.0119 153.113 39.3664 152.056 40.8059C152.022 35.029 152.06 29.2519 152.169 23.4759C152.213 21.3659 152.297 19.7889 152.293 19.4209C152.281 18.5969 151.799 18.2849 150.798 17.8909C149.912 17.5419 148.865 17.3009 147.778 17.2159C146.407 17.1099 145.581 17.8364 145.603 18.6964C145.607 18.8589 145.607 19.8559 145.607 19.8559C144.48 18.0839 142.666 16.8509 141.46 16.4934C138.21 15.5284 134.819 16.3834 132.261 19.9629C130.228 22.8064 128.897 26.7974 128.52 30.6204C128.169 34.1829 128.233 37.2104 128.712 39.7614C128.196 42.3154 126.71 44.9864 125.03 44.9864C122.882 44.9864 121.66 43.0869 121.66 34.4054C121.66 29.3409 121.812 27.1384 121.887 23.4754C121.931 21.3659 122.014 19.7454 122.01 19.3779C121.994 18.2504 120.044 17.6824 119.137 17.4719C118.188 17.2519 117.368 17.1719 116.739 17.2184C115.909 17.2799 115.325 18.0234 115.325 18.5779V19.8559C114.197 18.0839 112.384 16.8509 111.177 16.4934C107.927 15.5284 104.555 16.3974 101.978 19.9629C100.298 22.2874 98.938 24.8644 98.238 30.5694C98.0355 32.2179 97.946 33.7624 97.958 35.2049C97.288 39.3029 94.328 44.0259 91.9075 44.0259C90.491 44.0259 89.1415 41.2779 89.1415 35.4224C89.1415 27.6224 89.6245 16.5164 89.7065 15.4464C89.7065 15.4464 92.765 15.3944 93.357 15.3874C94.883 15.3704 96.2645 15.4069 98.297 15.3024C99.316 15.2509 100.298 11.5924 99.246 11.1399C98.769 10.9349 95.3995 10.7559 94.0635 10.7274C92.9405 10.7024 89.8135 10.4704 89.8135 10.4704C89.8135 10.4704 90.094 3.0989 90.1595 2.3204C90.2145 1.6709 89.3745 1.3369 88.8935 1.1344C87.7225 0.639399 86.675 0.401899 85.4335 0.145899C83.7175 -0.208101 82.9395 0.138399 82.7875 1.5859C82.5585 3.7834 82.44 10.2199 82.44 10.2199C81.181 10.2199 76.88 9.9739 75.621 9.9739C74.451 9.9739 73.188 15.0059 74.806 15.0679C76.667 15.1399 79.9105 15.2029 82.0605 15.2669C82.0605 15.2669 81.9645 26.5559 81.9645 30.0419C81.9648 30.4119 81.9661 30.7699 81.9685 31.1159C80.785 37.2834 76.617 40.6154 76.617 40.6154C77.512 36.5349 75.6835 33.4704 72.39 30.8764C71.1765 29.9209 68.781 28.1114 66.101 26.1284C66.101 26.1284 67.653 24.5984 69.03 21.5204C70.005 19.3394 70.0475 16.8449 67.653 16.2944C63.697 15.3844 60.4355 18.2899 59.4625 21.3919C58.7085 23.7949 59.1105 25.5774 60.5875 27.4294C60.695 27.5649 60.8125 27.7034 60.9325 27.8424C60.04 29.5634 58.813 31.8809 57.774 33.6779C54.89 38.6679 52.7115 42.6139 51.065 42.6139C49.749 42.6139 49.7665 38.6069 49.7665 34.8554C49.7665 31.6214 50.0055 26.7589 50.1965 21.7254C50.2595 20.0604 49.4265 19.1119 48.0315 18.2529C47.1835 17.7309 45.374 16.7049 44.326 16.7049C42.757 16.7049 38.231 16.9184 33.955 29.2884C33.416 30.8474 32.357 33.6884 32.357 33.6884L32.4485 18.8129C32.4485 18.4639 32.2625 18.1269 31.837 17.8964C31.1165 17.5049 29.192 16.7049 27.4805 16.7049C26.6655 16.7052 26.258 17.0836 26.258 17.8399L26.109 41.1129C26.109 42.8814 26.155 44.9444 26.33 45.8464C26.504 46.7494 26.7865 47.4844 27.1355 47.9214C27.485 48.3579 27.8885 48.6914 28.554 48.8284C29.1735 48.9559 32.5655 49.3914 32.742 48.0954C32.953 46.5414 32.9615 44.8614 34.7425 38.5944C37.5155 28.8369 41.1305 24.0769 42.8305 22.3859C43.128 22.0909 43.467 22.0729 43.4505 22.5564C43.3785 24.6954 43.123 30.0414 42.9515 34.5814C42.491 46.7339 44.7015 48.9864 47.861 48.9864C50.278 48.9864 53.685 46.5849 57.337 40.5059C59.3718 37.1182 61.3974 33.7248 63.4135 30.3259C64.52 31.3504 65.7625 32.4529 67.0035 33.6309C69.8885 36.3689 70.8355 38.9709 70.207 41.4389C69.727 43.3254 67.9165 45.2699 64.695 43.3804C63.756 42.8289 63.355 42.4024 62.411 41.7809C61.904 41.4474 61.1295 41.3474 60.665 41.6974C59.459 42.6064 58.769 43.7634 58.375 45.1954C57.992 46.5889 59.3875 47.3254 60.8345 47.9699C62.08 48.5244 64.7575 49.0269 66.4645 49.0839C73.117 49.3064 78.4465 45.8719 82.1565 37.0124C82.8205 44.6639 85.6465 48.9934 90.557 48.9934C93.84 48.9934 97.1315 44.7499 98.571 40.5754C98.984 42.2769 99.596 43.7569 100.386 45.0084C104.169 51.0034 111.509 49.7134 115.196 44.6224C116.336 43.0494 116.51 42.4844 116.51 42.4844C117.048 47.2909 120.919 48.9704 123.135 48.9704C125.617 48.9704 128.18 47.7969 129.976 43.7529C130.186 44.1926 130.417 44.6111 130.668 45.0084C134.451 51.0034 141.792 49.7134 145.479 44.6224C145.652 44.3837 145.804 44.1671 145.935 43.9724L146.043 47.1299L142.649 50.2434C136.959 55.4584 132.637 59.4134 132.319 64.0199C131.914 69.8934 136.675 72.0764 140.282 72.3624C144.105 72.6659 147.386 70.5519 149.399 67.5934C151.171 64.9889 152.331 59.3839 152.245 53.8484C152.212 51.6314 152.155 48.8129 152.112 45.7914C154.109 43.4719 156.36 40.5399 158.432 37.1089C160.69 33.3694 163.11 28.3474 164.349 24.4389C164.349 24.4389 166.451 24.4574 168.695 24.3104C169.413 24.2634 169.619 24.4104 169.486 24.9359C169.326 25.5719 166.651 35.8884 169.093 42.7609C170.763 47.4659 174.53 48.9789 176.763 48.9789C179.377 48.9789 181.878 47.0049 183.218 44.0739C183.38 44.4004 183.548 44.7164 183.733 45.0089C187.516 51.0039 194.831 49.7054 198.544 44.6224C199.382 43.4754 199.857 42.4844 199.857 42.4844C200.654 47.4594 204.523 48.9959 206.739 48.9959C209.047 48.9959 211.238 48.0494 213.015 43.8439C213.09 45.6959 213.206 47.2099 213.391 47.6869C213.503 47.9794 214.159 48.3454 214.636 48.5224C216.748 49.3054 218.901 48.9354 219.698 48.7744C220.25 48.6624 220.681 48.2194 220.74 47.0764C220.895 44.0739 220.8 39.0294 221.71 35.2799C223.237 28.9884 224.663 26.5479 225.339 25.3399C225.717 24.6624 226.144 24.5509 226.159 25.2674C226.191 26.7174 226.263 30.9739 226.855 36.6939C227.29 40.8999 227.87 43.3864 228.317 44.1739C229.591 46.4239 231.163 46.5304 232.444 46.5304C233.259 46.5304 234.963 46.3054 234.811 44.8734C234.736 44.1754 234.866 39.8614 236.373 33.6629C237.356 29.6149 238.996 25.9579 239.588 24.6204C239.806 24.1274 239.908 24.5159 239.904 24.5919C239.779 27.3794 239.5 36.4974 240.635 41.4844C242.175 48.2399 246.628 48.9959 248.18 48.9959C251.493 48.9959 254.203 46.4759 255.115 39.8449C255.335 38.2489 255.01 37.0174 254.034 37.0174Z" fill="black"/>
</svg>
