<svg width="4" height="17" viewBox="0 0 4 17" fill="none" xmlns="http://www.w3.org/2000/svg">
<path d="M1.5672 13.7723C1.95632 13.7723 2.32916 13.9268 2.60431 14.202C2.87946 14.4771 3.034 14.85 3.034 15.2391C3.034 15.6282 2.87946 16.001 2.60431 16.2762C2.32916 16.5513 1.95632 16.7059 1.5672 16.7059C1.17808 16.7059 0.805241 16.5513 0.53009 16.2762C0.254939 16.001 0.100403 15.6282 0.100403 15.2391C0.100403 14.85 0.254939 14.4771 0.53009 14.202C0.805241 13.9268 1.17808 13.7723 1.5672 13.7723ZM1.71173 6.94318C2.04778 6.97643 2.36344 7.12516 2.60431 7.36603C2.87946 7.64118 3.034 8.01402 3.034 8.40314C3.034 8.79226 2.87946 9.1651 2.60431 9.44025C2.36344 9.68112 2.04778 9.82984 1.71173 9.8631L1.5672 9.86993C1.17808 9.86993 0.805241 9.7154 0.53009 9.44025C0.254939 9.1651 0.100403 8.79226 0.100403 8.40314C0.100403 8.01401 0.254939 7.64118 0.53009 7.36603C0.805241 7.09088 1.17808 6.93634 1.5672 6.93634L1.71173 6.94318ZM1.71173 0.107239C2.04778 0.140495 2.36344 0.28922 2.60431 0.53009C2.87946 0.805241 3.034 1.17808 3.034 1.5672C3.034 1.95632 2.87946 2.32916 2.60431 2.60431C2.32916 2.87946 1.95632 3.034 1.5672 3.034C1.17808 3.034 0.805241 2.87946 0.53009 2.60431C0.254939 2.32916 0.100403 1.95632 0.100403 1.5672C0.100403 1.17808 0.254939 0.805241 0.53009 0.53009C0.805241 0.254939 1.17808 0.100403 1.5672 0.100403L1.71173 0.107239Z" fill="black" stroke="black" stroke-width="0.2"/>
</svg>
