<svg width="20" height="21" viewBox="0 0 20 21" fill="none" xmlns="http://www.w3.org/2000/svg">
<path d="M6.64996 12.85C7.49996 13.48 8.53496 13.85 9.64996 13.85C10.765 13.85 12 12.98 12.85 12.35" stroke="black" stroke-width="1.7" stroke-linecap="round"/>
<path d="M14.45 9.34998C14.45 10.178 14.002 10.85 13.45 10.85C12.898 10.85 12.45 10.178 12.45 9.34998C12.45 8.52198 12.898 7.84998 13.45 7.84998C14.002 7.84998 14.45 8.52198 14.45 9.34998Z" fill="black"/>
<path d="M5.84998 10.85C6.40226 10.85 6.84998 10.1784 6.84998 9.34998C6.84998 8.52155 6.40226 7.84998 5.84998 7.84998C5.29769 7.84998 4.84998 8.52155 4.84998 9.34998C4.84998 10.1784 5.29769 10.85 5.84998 10.85Z" fill="black"/>
<path d="M3.55742 19.85C3.20187 19.8511 2.84961 19.7775 2.52087 19.6334C2.19214 19.4892 1.8934 19.2774 1.64183 19.0101C1.39025 18.7428 1.19079 18.4253 1.0549 18.0757C0.919014 17.7262 0.849373 17.3515 0.84998 16.9732V3.72672C0.849373 3.34845 0.919014 2.97378 1.0549 2.62423C1.19079 2.27468 1.39025 1.95713 1.64183 1.68983C1.8934 1.42252 2.19214 1.21072 2.52087 1.0666C2.84961 0.922474 3.20187 0.848861 3.55742 0.849988H16.1418C16.4973 0.848861 16.8496 0.922474 17.1783 1.0666C17.5071 1.21072 17.8058 1.42252 18.0574 1.68983C18.309 1.95713 18.5084 2.27468 18.6443 2.62423C18.7802 2.97378 18.8498 3.34845 18.8492 3.72672V8.82148C18.8492 10.6173 18.9153 11.2583 17.8016 12.4418L11.8785 18.7367C11.0382 19.6294 9.65979 19.85 8.47205 19.85H3.55742Z" stroke="black" stroke-width="1.7" stroke-linecap="round" stroke-linejoin="round"/>
<path d="M18.2082 11.9586H14.5598C12.3506 11.9586 10.5598 13.7494 10.5598 15.9586V19.5433" stroke="black" stroke-width="1.7" stroke-linecap="round" stroke-linejoin="round"/>
</svg>
