<svg width="15" height="22" viewBox="0 0 15 22" fill="none" xmlns="http://www.w3.org/2000/svg">
<path d="M13.2625 7.6629C13.4714 7.6629 13.6715 7.74569 13.8192 7.89337C13.9668 8.04106 14.0496 8.24115 14.0496 8.45001V9.82501L14.0428 10.1483C13.968 11.7609 13.3352 13.3015 12.2479 14.5037C11.1081 15.7638 9.54823 16.5622 7.86212 16.7537V19.3504H11.8875C12.0964 19.3504 12.2965 19.4332 12.4442 19.5809C12.5918 19.7286 12.6746 19.9287 12.6746 20.1375C12.6746 20.3464 12.5918 20.5465 12.4442 20.6942C12.2965 20.8418 12.0964 20.9246 11.8875 20.9246H2.26251C2.05365 20.9246 1.85356 20.8418 1.70587 20.6942C1.55819 20.5465 1.4754 20.3464 1.4754 20.1375C1.4754 19.9287 1.55819 19.7286 1.70587 19.5809C1.85356 19.4332 2.05365 19.3504 2.26251 19.3504H6.2879V16.7537C4.6018 16.5622 3.04189 15.7638 1.90216 14.5037C0.74233 13.2214 0.100381 11.5541 0.100403 9.82501V8.45001C0.100403 8.24115 0.183187 8.04106 0.330872 7.89337C0.478556 7.74569 0.678654 7.6629 0.887512 7.6629C1.09637 7.6629 1.29647 7.74569 1.44415 7.89337C1.59184 8.04106 1.67462 8.24115 1.67462 8.45001V9.82501C1.67462 11.2572 2.24396 12.6307 3.25665 13.6434C4.26935 14.6561 5.64284 15.2254 7.07501 15.2254C8.50718 15.2254 9.88068 14.6561 10.8934 13.6434C11.9061 12.6307 12.4754 11.2572 12.4754 9.82501V8.45001C12.4754 8.24115 12.5582 8.04106 12.7059 7.89337C12.8536 7.74569 13.0537 7.6629 13.2625 7.6629Z" fill="black" stroke="black" stroke-width="0.2"/>
<path d="M7.07501 0.100403C8.19264 0.100403 9.26648 0.503597 10.0594 1.22443C10.8525 1.94553 11.2996 2.92577 11.2996 3.95001V10.2C11.2996 11.2243 10.8525 12.2045 10.0594 12.9256C9.26648 13.6464 8.19264 14.0496 7.07501 14.0496C5.95739 14.0496 4.88355 13.6464 4.09064 12.9256C3.29753 12.2045 2.8504 11.2243 2.8504 10.2V3.95001C2.8504 2.92577 3.29753 1.94553 4.09064 1.22443C4.88355 0.503597 5.95739 0.100403 7.07501 0.100403ZM7.07501 1.54962C6.36928 1.54962 5.69446 1.80538 5.19806 2.25665C4.70199 2.70764 4.42462 3.31675 4.42462 3.95001V10.2C4.42462 10.8333 4.70199 11.4424 5.19806 11.8934C5.69446 12.3446 6.36928 12.6004 7.07501 12.6004C7.78075 12.6004 8.45556 12.3446 8.95197 11.8934C9.44803 11.4424 9.7254 10.8333 9.7254 10.2V3.95001L9.71173 3.71368C9.65194 3.16672 9.38595 2.6512 8.95197 2.25665C8.45556 1.80538 7.78075 1.54962 7.07501 1.54962Z" fill="black" stroke="black" stroke-width="0.2"/>
</svg>
