<svg width="27" height="22" viewBox="0 0 27 22" fill="none" xmlns="http://www.w3.org/2000/svg">
<path d="M8.46417 0.212524L0.756165 7.92053L0.211243 8.46643L0.14093 8.53674L0.211243 8.60706L0.756165 9.15295L8.46417 16.8619L8.53448 16.9323L8.60577 16.8619L9.76788 15.6998L9.69757 15.6285L3.47589 9.40784H16.7894C19.0115 9.40792 21.1429 10.2906 22.7142 11.8619C24.2855 13.4333 25.1682 15.5645 25.1683 17.7867V20.8707C25.1684 21.1015 25.26 21.3228 25.4232 21.486C25.5865 21.6493 25.8084 21.7408 26.0394 21.7408C26.2702 21.7408 26.4914 21.6492 26.6546 21.486C26.8178 21.3228 26.9094 21.1015 26.9095 20.8707V17.7867C26.9094 15.1026 25.8436 12.5285 23.9456 10.6305C22.0477 8.73255 19.4735 7.66574 16.7894 7.66565H3.47589L9.69757 1.44495L9.76788 1.37463L9.69757 1.30334L8.60577 0.212524L8.53448 0.141235L8.46417 0.212524Z" fill="black" stroke="black" stroke-width="0.2"/>
</svg>
