<svg width="22" height="22" viewBox="0 0 22 22" fill="none" xmlns="http://www.w3.org/2000/svg">
<path d="M10.85 20.85C16.3728 20.85 20.85 16.3728 20.85 10.85C20.85 5.32713 16.3728 0.849976 10.85 0.849976C5.32713 0.849976 0.849976 5.32713 0.849976 10.85C0.849976 16.3728 5.32713 20.85 10.85 20.85Z" stroke="black" stroke-width="1.7"/>
<path d="M7.84998 14.85C8.69998 15.48 9.73498 15.85 10.85 15.85C11.965 15.85 13 15.48 13.85 14.85" stroke="black" stroke-width="1.7" stroke-linecap="round"/>
<path d="M15.65 11.35C15.65 12.178 15.202 12.85 14.65 12.85C14.098 12.85 13.65 12.178 13.65 11.35C13.65 10.522 14.098 9.84998 14.65 9.84998C15.202 9.84998 15.65 10.522 15.65 11.35Z" fill="black"/>
<path d="M7.04999 12.85C7.60227 12.85 8.04999 12.1784 8.04999 11.35C8.04999 10.5215 7.60227 9.84998 7.04999 9.84998C6.4977 9.84998 6.04999 10.5215 6.04999 11.35C6.04999 12.1784 6.4977 12.85 7.04999 12.85Z" fill="black"/>
</svg>
