<svg width="160" height="156" viewBox="0 0 160 156" fill="none" xmlns="http://www.w3.org/2000/svg">
<path d="M127.352 54.5508L42.4268 137.366C41.2768 138.482 39.8513 139.317 38.2695 139.786L7.06445 149.012L16.4639 118.819C16.9321 117.34 17.7703 115.981 18.918 114.865L18.9248 114.858L104.054 31.8359L127.352 54.5508ZM137.451 6C141.889 6.00063 146.116 7.72132 149.208 10.7373C152.199 13.6543 153.893 17.5473 153.995 21.5977L154 21.9902C153.999 26.0497 152.398 29.9778 149.49 32.9561L149.204 33.2422L135.945 46.1709L112.648 23.4551L125.692 10.7344C128.786 7.71905 133.013 5.99946 137.451 6Z" stroke="white" stroke-width="12" stroke-linecap="round" stroke-linejoin="round"/>
</svg>
