<svg width="142" height="142" viewBox="0 0 142 142" fill="none" xmlns="http://www.w3.org/2000/svg">
<path d="M35.4167 14.1667C35.4167 10.4094 36.9092 6.80609 39.566 4.14932C42.2228 1.49255 45.8261 0 49.5833 0H92.0833C95.8406 0 99.4439 1.49255 102.101 4.14932C104.757 6.80609 106.25 10.4094 106.25 14.1667V28.3333H134.583C136.462 28.3333 138.264 29.0796 139.592 30.408C140.92 31.7364 141.667 33.5381 141.667 35.4167C141.667 37.2953 140.92 39.097 139.592 40.4253C138.264 41.7537 136.462 42.5 134.583 42.5H127.011L120.87 128.506C120.616 132.08 119.016 135.425 116.394 137.867C113.772 140.309 110.322 141.667 106.739 141.667H34.9208C31.3377 141.667 27.8876 140.309 25.2654 137.867C22.6433 135.425 21.044 132.08 20.7896 128.506L14.6625 42.5H7.08333C5.20472 42.5 3.40304 41.7537 2.07466 40.4253C0.746277 39.097 0 37.2953 0 35.4167C0 33.5381 0.746277 31.7364 2.07466 30.408C3.40304 29.0796 5.20472 28.3333 7.08333 28.3333H35.4167V14.1667ZM49.5833 28.3333H92.0833V14.1667H49.5833V28.3333ZM28.8575 42.5L34.9279 127.5H106.746L112.816 42.5H28.8575ZM56.6667 56.6667C58.5453 56.6667 60.347 57.4129 61.6753 58.7413C63.0037 60.0697 63.75 61.8714 63.75 63.75V106.25C63.75 108.129 63.0037 109.93 61.6753 111.259C60.347 112.587 58.5453 113.333 56.6667 113.333C54.7881 113.333 52.9864 112.587 51.658 111.259C50.3296 109.93 49.5833 108.129 49.5833 106.25V63.75C49.5833 61.8714 50.3296 60.0697 51.658 58.7413C52.9864 57.4129 54.7881 56.6667 56.6667 56.6667ZM85 56.6667C86.8786 56.6667 88.6803 57.4129 90.0087 58.7413C91.3371 60.0697 92.0833 61.8714 92.0833 63.75V106.25C92.0833 108.129 91.3371 109.93 90.0087 111.259C88.6803 112.587 86.8786 113.333 85 113.333C83.1214 113.333 81.3197 112.587 79.9913 111.259C78.6629 109.93 77.9167 108.129 77.9167 106.25V63.75C77.9167 61.8714 78.6629 60.0697 79.9913 58.7413C81.3197 57.4129 83.1214 56.6667 85 56.6667Z" fill="white"/>
</svg>
